# xmcd
#
# Track frame offsets:
#	150
#	21264
#	40621
#	56610
#	79084
#	99663
#	116980
#	136502
#	161364
#	181897
#	199526
#	220955
#	246761
#	266112
#
# Disc length: 3820 seconds
#
# Revision: 5
# Processed by: cddbd v1.5.2PL0 Copyright (c) Steve Scherf et al.
# Submitted via: EasyCDDAExtractor 15.3.0.1
#
DISCID=bb0eea0e
DTITLE=Mariah Carey - The Essential Mariah Carey (US Edition) - CD 2
DYEAR=2012
DGENRE=R&B/Pop
TTITLE0=One Sweet Day (Mariah Carey and Boyz II Men)
TTITLE1=Always Be My Baby
TTITLE2=Underneath The Stars
TTITLE3=Honey
TTITLE4=Butterfly
TTITLE5=My All
TTITLE6=Close My Eyes
TTITLE7=The Roof (Mobb Deep Extended Version)
TTITLE8=When You Believe (From The Prince Of Egypt) (Mariah Carey and Whitney Ho
TTITLE8=uston)
TTITLE9=I Still Believe
TTITLE10=Heartbreaker (Featuring Jay-Z)
TTITLE11=Bliss
TTITLE12=Thank God I Found You (Featuring Joe and 98 Degrees)
TTITLE13=Can't Take That Away (Mariah's Theme)
EXTD=
EXTT0=
EXTT1=
EXTT2=
EXTT3=
EXTT4=
EXTT5=
EXTT6=
EXTT7=
EXTT8=
EXTT9=
EXTT10=
EXTT11=
EXTT12=
EXTT13=
PLAYORDER=
